<svg xmlns="http://www.w3.org/2000/svg" width="29.691" height="26.397" viewBox="0 0 29.691 26.397"><defs><style>.a{fill:#fff;}</style></defs><g transform="translate(0)"><path class="a" d="M187.6,0a8.057,8.057,0,0,0-6.178,2.843A8.057,8.057,0,0,0,175.246,0c-4.86,0-8.668,4.04-8.668,9.2,0,5.413,4.208,8.965,10.033,13.882,1.016.858,2.067,1.745,3.181,2.71a2.49,2.49,0,0,0,3.262,0c1.114-.966,2.165-1.853,3.182-2.711,1.785-1.507,3.327-2.808,4.68-4.084,2.78-2.623,5.353-5.626,5.353-9.8C196.269,4.04,192.462,0,187.6,0Zm-.1,15.371c-1.252,1.181-2.745,2.441-4.474,3.9-.523.441-1.055.89-1.6,1.354-.546-.464-1.077-.913-1.6-1.354-5.582-4.712-8.265-7.108-8.265-10.076,0-2.095,1.267-4.216,3.688-4.216,2.674,0,3.708,3.3,3.78,3.535a2.479,2.479,0,0,0,4.8,0c.071-.24,1.105-3.535,3.78-3.535,2.421,0,3.687,2.121,3.687,4.216C191.289,11.066,190.226,12.8,187.5,15.371Z" transform="translate(-166.578 0)"/></g></svg>