<?xml version="1.0" encoding="UTF-8"?>
<svg width="33px" height="34px" viewBox="0 0 33 34" version="1.1" xmlns="http://www.w3.org/2000/svg" xmlns:xlink="http://www.w3.org/1999/xlink">
    <!-- Generator: Sketch 55.2 (78181) - https://sketchapp.com -->
    <title>Group</title>
    <desc>Created with Sketch.</desc>
    <g id="Page-1" stroke="none" stroke-width="1" fill="none" fill-rule="evenodd">
        <g id="Group" fill="#FFFFFF" fill-rule="nonzero">
            <g id="Group-4" transform="translate(0.000000, 10.000000)">
                <path d="M27.918,11.827 C28.661602,10.9552665 29.069741,9.8468022 29.069,8.701 L29.069,6.767 C29.066244,4.09839791 26.9036021,1.93575597 24.235,1.933 L18.435,1.933 C17.9009406,1.933 17.468,2.36594065 17.468,2.9 C17.4679996,4.42101895 18.1846183,5.85314457 19.402,6.765 L19.402,8.7 C19.4013805,9.84721478 19.8106437,10.956907 20.556,11.829 C18.8608175,12.2861051 17.4081367,13.3811698 16.502,14.885 C15.5963355,13.3807443 14.1434616,12.285534 12.448,11.829 C13.1926339,10.9566235 13.601177,9.84696076 13.6,8.7 L13.6,6.766 C13.5999141,6.31783307 13.5373109,5.87186893 13.414,5.441 C13.408,5.417 13.4013333,5.39333333 13.394,5.37 C12.6599318,2.93013607 10.1565611,1.48037843 7.675,2.058 C7.27335934,0.734085194 5.99245495,-0.121757433 4.61562037,0.0138603133 C3.23878579,0.14947806 2.14947806,1.23878579 2.01386031,2.61562037 C1.87824257,3.99245495 2.73408519,5.27335934 4.058,5.675 C3.97454661,6.03301307 3.93227245,6.39938913 3.932,6.767 L3.932,8.7 C3.93125903,9.8458022 4.33939799,10.9542665 5.083,11.826 C2.10034475,12.6010493 0.0134864208,15.28732 7.53952456e-16,18.369 L7.53952456e-16,22.3 C7.53952456e-16,22.5564643 0.101880065,22.8024246 0.283227743,22.9837723 C0.464575421,23.1651199 0.710535654,23.267 0.967,23.267 L32.033,23.267 C32.2894643,23.267 32.5354246,23.1651199 32.7167723,22.9837723 C32.8981199,22.8024246 33,22.5564643 33,22.3 L33,18.368 C32.9857278,15.2873528 30.8995421,12.6022405 27.918,11.827 Z M8.766,3.867 C9.73193485,3.86711499 10.6344081,4.34815908 11.173,5.15 L5.866,7.273 L5.866,6.767 C5.866,5.16537423 7.16437423,3.867 8.766,3.867 L8.766,3.867 Z M11.6660013,7.035 L11.6660013,8.7 C11.6673709,10.1806069 10.5531678,11.4244924 9.08133942,11.5854897 C7.60951108,11.746487 6.25274662,10.7728905 5.934,9.327 L11.6660013,7.035 Z M4.9,3.867 L4.9,3.867 C4.36594065,3.867 3.933,3.43405935 3.933,2.9 C3.933,2.36594065 4.36594065,1.933 4.9,1.933 C5.43405935,1.933 5.867,2.36594065 5.867,2.9 L5.867,2.9 C5.50083242,3.17529686 5.17529686,3.50083242 4.9,3.867 L4.9,3.867 Z M15.532,21.334 L1.934,21.334 L1.934,18.369 C1.95491222,15.6821652 4.1471287,13.5194766 6.834,13.535 L10.7,13.535 C13.3686021,13.537756 15.531244,15.7003979 15.534,18.369 L15.532,21.334 Z M19.565,3.867 L24.233,3.867 C25.4614242,3.86925238 26.5558363,4.64342683 26.967,5.801 L22.3,5.801 C21.0713858,5.79934341 19.9766651,5.02495066 19.566,3.867 L19.565,3.867 Z M27.134,7.734 L27.134,8.701 C27.134,10.3026258 25.8356258,11.601 24.234,11.601 C22.6323742,11.601 21.334,10.3026258 21.334,8.701 L21.334,7.637 C21.6521572,7.70272277 21.9761264,7.73622527 22.301,7.737 L27.134,7.734 Z M31.066,21.334 L17.466,21.334 L17.466,18.369 C17.468756,15.7003979 19.6313979,13.537756 22.3,13.535 L26.167,13.535 C28.8538713,13.5194766 31.0460878,15.6821652 31.067,18.369 L31.066,21.334 Z" id="Shape"></path>
            </g>
            <g id="Group-2" transform="translate(10.000000, 0.000000)">
                <path d="M9.162,-5.44772167e-05 C8.23887676,-0.00544250312 7.36048986,0.397151492 6.762,1.1 C6.16351014,0.397151492 5.28512324,-0.00544250312 4.362,-5.44772167e-05 C3.43930676,0.018086683 2.5627025,0.406692061 1.92970106,1.07825674 C1.29669962,1.74982142 0.96055273,2.6478495 0.997,3.57 C0.997,5.67 2.631,7.051 4.897,8.959 C5.292,9.292 5.697,9.636 6.132,10.011 C6.49535502,10.3256311 7.03464498,10.3256311 7.398,10.011 C7.831,9.636 8.239,9.292 8.633,8.959 C9.326,8.374 9.925,7.869 10.45,7.373 C11.6522237,6.46006648 12.4081066,5.0777973 12.528,3.573 C12.5652761,2.65017098 12.2293633,1.75120958 11.5960562,1.07895584 C10.9627492,0.406702106 10.08541,0.0177997471 9.162,-5.44772167e-05 L9.162,-5.44772167e-05 Z M9.122,5.967 C8.636,6.426 8.056,6.915 7.385,7.481 L6.764,8.007 L6.143,7.482 C3.976,5.653 2.934,4.722 2.934,3.57 C2.89610095,3.16059669 3.02791422,2.75358348 3.29862071,2.44412362 C3.5693272,2.13466375 3.95519325,1.94988853 4.366,1.933 C5.404,1.933 5.806,3.212 5.833,3.306 C5.94329459,3.72988469 6.326001,4.02575426 6.764,4.02575426 C7.201999,4.02575426 7.58470541,3.72988469 7.695,3.306 C7.723,3.213 8.124,1.933 9.162,1.933 C9.57280675,1.94988853 9.9586728,2.13466375 10.2293793,2.44412362 C10.5000858,2.75358348 10.631899,3.16059669 10.594,3.57 C10.594,4.3 10.181,4.968 9.122,5.967 L9.122,5.967 Z" id="Shape"></path>
            </g>
        </g>
    </g>
</svg>