<?xml version="1.0" encoding="UTF-8"?>
<svg width="24px" height="33px" viewBox="0 0 24 33" version="1.1" xmlns="http://www.w3.org/2000/svg" xmlns:xlink="http://www.w3.org/1999/xlink">
    <!-- Generator: Sketch 55.2 (78181) - https://sketchapp.com -->
    <title>Group 3</title>
    <desc>Created with Sketch.</desc>
    <g id="Page-1" stroke="none" stroke-width="1" fill="none" fill-rule="evenodd">
        <g id="Group-3" transform="translate(-1.000000, 0.000000)" fill="#E4E4E4" fill-rule="nonzero">
            <g id="Path-3">
                <path d="M21.645,11.905 C20.4620737,9.72510732 18.7542155,7.87461254 16.676,6.521 C18.4695726,5.30170619 19.5434482,3.27377382 19.544,1.105 C19.544,0.494725351 19.0492746,0 18.439,0 L7.55,0 C6.93972535,0 6.445,0.494725351 6.445,1.105 C6.44555181,3.27377382 7.51942737,5.30170619 9.313,6.521 C7.23478448,7.87461254 5.52692628,9.72510732 4.344,11.905 C2.34094499,15.2387181 1.19226548,19.0155516 1,22.9 C0.861442199,25.8035276 2.26334971,28.56516 4.689,30.167 C7.20534269,31.6244491 10.0896998,32.3225295 12.994,32.177 C15.8983002,32.3225295 18.7826573,31.6244491 21.299,30.167 C23.7248762,28.5652614 25.1271376,25.8036804 24.989,22.9 C24.7966525,19.0155659 23.6479789,15.2387519 21.645,11.905 L21.645,11.905 Z M8.798,2.211 L17.191,2.211 C16.6898667,4.1178589 14.9661099,5.44713611 12.9945,5.44713611 C11.0228901,5.44713611 9.29913328,4.1178589 8.798,2.211 Z M20.089,28.311 C17.9268461,29.5178558 15.4677817,30.0894652 12.995,29.96 C10.5222183,30.0894652 8.06315391,29.5178558 5.901,28.311 C4.08917701,27.126011 3.06007815,25.0536583 3.211,22.894 C3.39742753,19.4066811 4.43978443,16.0189353 6.246,13.03 C8.264,9.616 10.724,7.658 12.994,7.658 C15.264,7.658 17.724,9.616 19.742,13.03 C21.549506,16.0206126 22.5922433,19.4105393 22.778,22.9 C22.9274329,25.0582718 21.8985159,27.1287283 20.088,28.313 L20.089,28.311 Z" id="Shape"></path>
            </g>
            <g id="Path-4" transform="translate(6.000000, 13.000000)">
                <path d="M10.059,1 C8.92681322,0.999428664 7.8455546,1.47048637 7.075,2.3 C5.92857156,1.06684826 4.14285697,0.663657788 2.57780059,1.28459252 C1.01274422,1.90552726 -0.0108297211,3.42330047 -8.51074152e-05,5.107 C-8.51074152e-05,8.818 5.851,12.335 6.518,12.724 C6.86191538,12.9244833 7.28708462,12.9244833 7.631,12.724 C8.298,12.335 14.1490061,8.818 14.1490061,5.107 C14.1528707,2.84380022 12.3221964,1.0055167 10.059,1 Z M7.076,10.476 C5.196,9.267 2.21,6.851 2.21,5.11 C2.19427195,4.42818403 2.54902294,3.79132011 3.13701097,3.44579085 C3.724999,3.1002616 4.454001,3.1002616 5.04198903,3.44579085 C5.62997706,3.79132011 5.98472805,4.42818403 5.969,5.11 C5.969,5.72055079 6.46394921,6.2155 7.0745,6.2155 C7.68505079,6.2155 8.18,5.72055079 8.18,5.11 C8.18,4.07225696 9.02125696,3.231 10.059,3.231 C11.096743,3.231 11.9380003,4.07225696 11.9380003,5.11 C11.939,6.803 9.155,9.15 7.076,10.476 Z" id="Shape"></path>
            </g>
        </g>
    </g>
</svg>